# xmcd
#
# Track frame offsets: 
#        182
#        14522
#        31445
#        47662
#        67660
#        84805
#        97952
#        118075
#        138327
#        157250
#        170475
#        189255
#        211187
#        227260
#
# Disc length: 3287 seconds
#
# Revision: 1
# Processed by: cddbd v1.5.2PL0 Copyright (c) Steve Scherf et al.
# Submitted via: ExactAudioCopyFreeDBPlugin 1.0
#
DISCID=a80cd50e
DTITLE=John Hore Grenell - Route 66: Country and  Western Music
DYEAR=1988
DGENRE=Country
TTITLE0=Cowboy John's last ride
TTITLE1=Ghost Town
TTITLE2=Lovers ans Losers
TTITLE3=Carolina in the Pines
TTITLE4=Dance with You
TTITLE5=All god's critters
TTITLE6=Night Rider's Lament
TTITLE7=Dance alla ight
TTITLE8=Past like a mask
TTITLE9=Other side of the hill
TTITLE10=Down on the farm
TTITLE11=One World
TTITLE12=Bull Rider
TTITLE13=Love is the Master
EXTD=
EXTT0=
EXTT1=
EXTT2=
EXTT3=
EXTT4=
EXTT5=
EXTT6=
EXTT7=
EXTT8=
EXTT9=
EXTT10=
EXTT11=
EXTT12=
EXTT13=
PLAYORDER=
